<?xml version="1.0" encoding="UTF-8" standalone="no"?>
<!-- Created with Inkscape (http://www.inkscape.org/) -->

<svg
   width="210mm"
   height="297mm"
   viewBox="0 0 210 297"
   version="1.1"
   id="svg1"
   inkscape:version="1.3 (0e150ed6c4, 2023-07-21)"
   sodipodi:docname="drawing.svg"
   xmlns:inkscape="http://www.inkscape.org/namespaces/inkscape"
   xmlns:sodipodi="http://sodipodi.sourceforge.net/DTD/sodipodi-0.dtd"
   xmlns="http://www.w3.org/2000/svg"
   xmlns:svg="http://www.w3.org/2000/svg">
  <sodipodi:namedview
     id="namedview1"
     pagecolor="#ffffff"
     bordercolor="#000000"
     borderopacity="0.25"
     inkscape:showpageshadow="2"
     inkscape:pageopacity="0.0"
     inkscape:pagecheckerboard="0"
     inkscape:deskcolor="#d1d1d1"
     inkscape:document-units="mm"
     inkscape:zoom="0.65121352"
     inkscape:cx="361.63254"
     inkscape:cy="644.18195"
     inkscape:window-width="1884"
     inkscape:window-height="967"
     inkscape:window-x="16"
     inkscape:window-y="95"
     inkscape:window-maximized="1"
     inkscape:current-layer="layer1" />
  <defs
     id="defs1" />
  <g
     inkscape:label="Layer 1"
     inkscape:groupmode="layer"
     id="layer1">
    <path
       style="fill:#ffffff;stroke-width:0.406292"
       d="M 96.992999,211.20512 C 70.922577,207.97638 49.608908,190.60428 41.55566,166.01989 35.259728,146.80012 38.255319,125.4958 49.590131,108.87961 59.243427,94.728417 73.797341,84.862846 90.422899,81.200544 c 17.031371,-3.751693 35.272651,-0.244837 50.246561,9.659823 12.00488,7.94076 21.44881,20.266183 25.9788,33.905363 2.77378,8.35146 3.69655,15.38646 3.34711,25.51749 -0.45959,13.32438 -3.76888,23.67393 -10.97764,34.33173 -3.36859,4.98029 -11.16791,12.73892 -16.09448,16.01051 -7.40468,4.91721 -16.1923,8.5487 -24.19359,9.99799 -4.34196,0.78646 -17.28613,1.13285 -21.736661,0.58167 z"
       id="path2"
       inkscape:export-filename="path2.png"
       inkscape:export-xdpi="96"
       inkscape:export-ydpi="96" />
    <ellipse
       style="fill:#000000;stroke-width:0.217687"
       id="path1-5"
       cx="104.24033"
       cy="146.444"
       rx="61.275532"
       ry="62.719616" />
    <text
       xml:space="preserve"
       style="font-size:42.4602px;fill:#ffffff;stroke-width:0.353834"
       x="53.269829"
       y="158.07722"
       id="text3"><tspan
         sodipodi:role="line"
         id="tspan3"
         style="font-style:normal;font-variant:normal;font-weight:bold;font-stretch:normal;font-family:'Source Code Pro';-inkscape-font-specification:'Source Code Pro Bold';stroke-width:0.353834"
         x="53.269829"
         y="158.07722">NEWS</tspan></text>
  </g>
</svg>
